PathFileType	4	(X/Y/Z)	C:\Users\Basilio\Documents\Thesis Gigler\squatting_fais\c3dfiles\019\SJ_pre5\markers_experimental.trc
DataRate	CameraRate	NumFrames	NumMarkers	Units	OrigDataRate	OrigDataStartFrame	OrigNumFrames
200.000000	200.000000	4	59	mm	200.000000	488	1303
Frame#	Time	FHD			LBHD			RBHD			C7			T10			CLAV			LSHO			LUUPA			LMUPA			LDUPA			LLEP			LMEP			LRAD			LUL			LRFIN			RSHO			RUPA1			RMUPA			RDUPA			RLEP			RMEP			RRAD			RUL			RUFIN			LASI			USACR			LSACR			RSACR			LTHI1			LTHI2			LTHI3			LTHI4			LLFC			LTIB1			LTIB2			LTIB3			LTIB4			LLMAL			LMMAL			LHEE			LMT1			LMT2			LMT5			RTHI			RTHI2			RTHI3			RTHI4			RLFC			RTIB1			RTIB2			RTIB3			RTIB4			RLMAL			RMMAL			RHEE			RMT1			RMT2			RMT5			RASI			
		X1	Y1	Z1	X2	Y2	Z2	X3	Y3	Z3	X4	Y4	Z4	X5	Y5	Z5	X6	Y6	Z6	X7	Y7	Z7	X8	Y8	Z8	X9	Y9	Z9	X10	Y10	Z10	X11	Y11	Z11	X12	Y12	Z12	X13	Y13	Z13	X14	Y14	Z14	X15	Y15	Z15	X16	Y16	Z16	X17	Y17	Z17	X18	Y18	Z18	X19	Y19	Z19	X20	Y20	Z20	X21	Y21	Z21	X22	Y22	Z22	X23	Y23	Z23	X24	Y24	Z24	X25	Y25	Z25	X26	Y26	Z26	X27	Y27	Z27	X28	Y28	Z28	X29	Y29	Z29	X30	Y30	Z30	X31	Y31	Z31	X32	Y32	Z32	X33	Y33	Z33	X34	Y34	Z34	X35	Y35	Z35	X36	Y36	Z36	X37	Y37	Z37	X38	Y38	Z38	X39	Y39	Z39	X40	Y40	Z40	X41	Y41	Z41	X42	Y42	Z42	X43	Y43	Z43	X44	Y44	Z44	X45	Y45	Z45	X46	Y46	Z46	X47	Y47	Z47	X48	Y48	Z48	X49	Y49	Z49	X50	Y50	Z50	X51	Y51	Z51	X52	Y52	Z52	X53	Y53	Z53	X54	Y54	Z54	X55	Y55	Z55	X56	Y56	Z56	X57	Y57	Z57	X58	Y58	Z58	X59	Y59	Z59	

489	2.44	126.8067169189453	861.276550292969	-877.727966308594	9.766890525817873	915.6465454101565	-1027.47509765625	1.424937129020691	920.1685791015627	-887.920837402344	-120.8975677490235	825.3421020507815	-950.9066162109377	-383.5350341796876	709.3780517578126	-949.5501708984377	nan	nan	nan	-74.63706970214845	770.4810791015627	-1088.47265625	-192.7373809814454	734.6315917968751	-1205.164672851563	-228.9041900634766	703.7586059570314	-1190.762451171875	-249.0283203125001	727.1918945312501	-1241.367553710938	-310.5858764648438	748.2358398437501	-1296.428588867188	-352.4996337890626	800.5965576171877	-1267.520141601563	-494.5579833984376	612.7521972656251	-1180.615844726563	-488.7754516601564	579.6948852539064	-1241.342529296875	-462.4439392089845	579.2985839843751	-1147.598876953125	-66.77037811279298	683.5604858398439	-945.8374633789065	-192.4454193115235	800.0662231445315	-678.9181518554689	-207.5114135742188	748.7479248046876	-669.8757324218751	-243.0544128417969	782.826843261719	-631.9233398437501	-309.9066162109376	749.3497314453126	-593.6967773437501	-347.0419311523438	802.933532714844	-620.4738159179689	-489.7313842773439	612.7892456054689	-723.2187500000001	-471.0711059570314	569.8920288085939	-676.1602172851564	-463.651580810547	579.4845581054689	-769.641784667969	nan	nan	nan	-520.3736572265626	638.3562622070314	-954.0163574218752	-550.5075683593751	620.7500000000001	-980.1667480468752	-547.8293457031251	618.6252441406251	-925.0834960937502	-409.2004394531251	443.0930175781251	-1177.951538085938	-330.8262634277344	475.3177490234376	-1193.233764648438	-320.0390625000001	517.6137084960939	-1172.007568359375	-278.6137695312501	443.6913452148439	-1201.944091796875	-196.055160522461	425.4348754882814	-1198.516357421875	-159.9384765625	295.1993408203126	-1168.664184570313	-233.1937713623047	272.0758972167969	-1214.346557617188	-198.0907592773438	258.5039367675782	-1192.339477539063	-230.3669738769532	189.121826171875	-1152.233032226563	-345.8752746582032	95.06541442871095	-1169.705444335938	-317.1291809082032	96.64702606201175	-1087.139404296875	-399.6101684570314	42.82534408569337	-1108.434814453125	-187.2958221435547	57.06579208374025	-1127.699951171875	-194.3564147949219	59.60819244384767	-1170.605590820313	-242.9405364990235	36.38564682006837	-1217.376708984375	-478.6177062988282	479.3325805664064	-741.4848022460939	-423.6177062988282	504.534393310547	-740.2387695312501	-415.8216552734376	524.9095458984376	-767.2056274414064	-353.0524902343751	480.3244628906251	-705.3351440429689	-210.1988983154297	429.529754638672	-687.4649047851564	-187.5435638427735	256.7048339843751	-731.7006835937501	-278.6037292480469	210.7427215576172	-690.7130126953126	-241.3011779785157	191.5622100830078	-717.2269897460939	-255.2859191894532	152.0213165283203	-756.4881591796876	-352.4417114257813	97.58387756347659	-725.2401733398439	-315.7015686035157	93.55046844482423	-798.5197753906252	-400.0292968750001	43.84693908691407	-788.3887329101565	-197.0458679199219	53.07472991943361	-737.2670898437501	-208.9889221191407	62.28669357299806	-693.5317993164064	-262.7018127441407	42.20614624023438	-655.7846069335939	-575.0238647460939	597.9754638671876	-808.767272949219	
490	2.445	126.7606811523438	861.3178710937502	-878.1252441406252	9.197703361511232	915.9082031250002	-1027.276611328125	1.388606548309326	920.0306396484377	-887.7656860351565	-120.9432067871094	825.550476074219	-950.9315185546877	-383.3890991210938	709.3703002929689	-949.5266723632815	nan	nan	nan	-74.5944061279297	770.4868164062502	-1088.455810546875	-192.6450500488282	734.5484008789064	-1205.079833984375	-228.7921905517579	703.6708984375001	-1190.76318359375	-249.2654876708985	727.1570434570314	-1241.237426757813	-310.4960327148438	748.0317993164064	-1296.413696289063	-352.5523681640626	800.5433349609377	-1267.54638671875	-494.5776977539064	612.7299194335939	-1180.644897460938	-488.8496093750001	579.5994262695314	-1241.371459960938	-462.4230041503907	579.2258911132814	-1147.600341796875	-66.63632965087892	683.5461425781251	-945.775329589844	-192.5053710937501	800.1563720703127	-678.7767944335939	-207.5828704833985	748.8966674804689	-669.8793945312501	-243.0495758056641	782.875915527344	-631.8941040039064	-309.9552917480469	749.4431152343751	-593.5798950195314	-347.1676025390626	802.924743652344	-620.3969726562501	-489.6538391113282	612.7631835937501	-723.1533813476564	-471.1982421875001	569.7897338867189	-676.1201782226564	-463.5424804687501	579.3221435546876	-769.5593261718752	nan	nan	nan	-520.3937377929689	638.3980712890626	-954.0466308593752	-550.4874877929689	620.7090454101564	-980.1834716796877	-547.7559204101564	618.5981445312501	-925.1256103515627	-409.1934204101564	443.0412597656251	-1177.950561523438	-330.8787841796876	475.3198547363282	-1193.317626953125	-320.0542602539063	517.5690917968751	-1172.016235351563	-278.7165222167969	443.719696044922	-1202.002685546875	-196.0595703125001	425.4190673828126	-1198.567504882813	-159.9012451171875	295.1925354003907	-1168.760864257813	-233.2243194580079	272.0751953125001	-1214.398193359375	-198.0759735107422	258.4841918945313	-1192.406860351563	-230.4883728027344	189.1407775878907	-1152.274658203125	-345.9040832519532	95.06240081787111	-1169.7109375	-317.1584777832032	96.69168853759768	-1087.17236328125	-399.6228637695314	42.83359909057618	-1108.46484375	-187.1996765136719	56.96504592895509	-1127.98291015625	-194.3533935546876	59.6848602294922	-1170.593627929688	-242.9427337646485	36.40804290771485	-1217.45166015625	-478.625213623047	479.3213806152345	-741.4254150390626	-423.5877685546876	504.5301818847657	-740.1429443359376	-415.8023681640626	524.9088745117189	-767.1881713867189	-353.0972290039063	480.2890014648439	-705.2271118164064	-210.2707519531251	429.4928588867189	-687.3295288085939	-187.4664764404297	256.7452087402344	-731.6387939453126	-278.5873107910157	210.7760009765626	-690.6502685546876	-241.2207336425782	191.4846343994141	-717.2731933593751	-253.3530578613282	151.0774078369141	-760.3513793945314	-352.4994506835938	97.61083984375003	-725.2153930664064	-315.7343444824219	93.54361724853517	-798.5490722656252	-400.3115844726564	44.14625930786134	-788.259948730469	-197.0303802490235	53.09642791748048	-737.2246704101564	-208.9690856933594	62.28111267089845	-693.4477539062501	-262.7290954589844	42.21166610717774	-655.7817993164064	-575.0802001953126	597.9545288085939	-808.7030029296877	
491	2.45	126.9786682128907	861.5614013671877	-878.1363525390627	9.006002426147463	916.019226074219	-1027.140258789063	1.316599130630493	920.1972656250002	-887.602233886719	-120.9209289550782	825.4570312500002	-950.8380126953127	-383.5537414550782	709.4113769531251	-949.5865478515627	nan	nan	nan	-74.63756561279298	770.455505371094	-1088.377197265625	-192.701156616211	734.5511474609376	-1205.085327148438	-228.8015441894532	703.5869140625001	-1190.681396484375	-249.110336303711	727.0552978515626	-1241.234497070313	-310.3925476074219	747.9194335937501	-1296.401733398438	-352.5310974121094	800.5283203125002	-1267.563354492188	-494.6645812988282	612.7382202148439	-1180.672485351563	-488.865692138672	579.5220336914064	-1241.374389648438	-462.3318176269532	579.1483764648439	-1147.621704101563	-66.66212463378908	683.5594482421876	-945.6424560546877	-192.5461425781251	800.2029418945315	-678.8521118164064	-207.6487731933594	748.9669799804689	-669.8201904296876	-243.0875396728516	782.9443359375002	-631.8302612304689	-309.9815979003907	749.4659423828126	-593.5065917968751	-347.0872497558594	802.9835205078127	-620.2307739257814	-489.657928466797	612.7739868164064	-723.1572875976564	-471.1445312500001	569.6172485351564	-676.0907592773439	-463.5389709472657	579.4979858398439	-769.6279296875002	nan	nan	nan	-520.3598632812501	638.3994750976564	-954.059997558594	-550.4779052734376	620.7313842773439	-980.1675415039065	-547.7411499023439	618.5678100585939	-925.2014770507815	-409.1793518066407	443.0076293945314	-1177.99462890625	-330.7908630371094	475.2813415527345	-1193.303955078125	-320.1260070800782	517.5701904296876	-1172.051025390625	-278.7153320312501	443.6943969726564	-1202.037353515625	-195.9961700439454	425.3540649414064	-1198.6123046875	-159.9429473876953	295.2463684082032	-1168.806518554688	-233.2242126464844	272.0958251953126	-1214.440063476563	-198.0855865478516	258.4990539550782	-1192.427368164063	-230.3893280029297	189.1446533203125	-1152.280883789063	-345.8535766601563	95.02577972412111	-1169.7021484375	-317.1853027343751	96.68435668945315	-1087.182495117188	-399.6171875000001	42.84271621704102	-1108.420776367188	-187.2481384277344	56.970272064209	-1127.937255859375	-194.290023803711	59.70852661132814	-1170.67578125	-242.9020080566407	36.4205665588379	-1217.548461914063	-478.6424865722657	479.3459472656251	-741.4802856445314	-423.5841369628907	504.5014953613282	-740.1384887695314	-415.7811279296876	524.8433837890626	-767.0953979492189	-353.1102294921876	480.3084411621095	-705.1416625976564	-210.2782135009766	429.511932373047	-687.2292480468751	-187.5166625976563	256.8300781250001	-731.5803222656251	-278.6408081054688	210.7593841552735	-690.5736694335939	-241.2736968994141	191.4496612548828	-717.1251220703126	-253.543685913086	151.0490417480469	-759.8365478515626	-352.4430236816407	97.58296966552737	-725.2413330078126	-315.6990966796876	93.54578399658205	-798.5195312500002	-400.1841735839845	44.06362533569337	-788.3289794921877	-197.097396850586	53.05838775634767	-737.2034912109376	-209.0684204101563	62.3118019104004	-693.4663696289064	-262.8110961914063	42.27385330200196	-655.7571411132814	-575.0542602539064	598.1076660156251	-808.737487792969	
492	2.455	127.0716629028321	861.8018188476565	-878.2720947265627	8.786424636840822	916.1097412109377	-1027.06005859375	1.393136739730835	920.200378417969	-887.4280395507815	-121.1054000854492	825.6026611328127	-950.8807373046877	-383.3171081542969	709.3691406250001	-949.584899902344	nan	nan	nan	-74.5823440551758	770.3831787109377	-1088.270141601563	-192.5978240966797	734.4790039062501	-1205.01416015625	-228.738265991211	703.5093994140626	-1190.640869140625	-248.9932403564454	726.9155273437501	-1241.180297851563	-310.3377380371094	747.8038330078126	-1296.3837890625	-352.3594970703126	800.338806152344	-1267.573364257813	-494.6055297851564	612.6792602539064	-1180.701171875	-488.8463745117189	579.4847412109376	-1241.3623046875	-462.4730224609376	579.1734619140626	-1147.65771484375	-66.65531158447267	683.6414184570314	-945.5115356445315	-192.6658935546876	800.3570556640627	-678.7904052734376	-207.6459045410157	749.0699462890626	-669.7626342773439	-243.0635528564454	782.9957275390627	-631.7977905273439	-309.9594116210938	749.5151977539064	-593.4068603515626	-347.1649475097657	802.9920654296877	-620.1493530273439	-489.5102844238282	612.6654663085939	-723.1234130859376	-471.025360107422	569.5816650390626	-676.0084228515626	-463.5604248046876	579.4307250976564	-769.612487792969	nan	nan	nan	-520.4984741210939	638.4505615234376	-954.0665283203127	-550.4066772460939	620.6928710937501	-980.1416625976565	-547.7923583984376	618.6171875000001	-925.1707763671877	-409.1842346191407	442.9652099609376	-1177.98974609375	-330.8406372070313	475.2330017089845	-1193.371704101563	-320.1233520507813	517.5196533203126	-1172.151489257813	-278.7117004394532	443.6257324218751	-1202.142700195313	-196.107894897461	425.3376770019532	-1198.727783203125	-159.9974822998047	295.2173767089844	-1168.890991210938	-233.1186828613282	272.0527038574219	-1214.553588867188	-198.1383056640626	258.6624145507813	-1192.51611328125	-230.473373413086	189.0462951660157	-1152.444580078125	-345.8508911132813	95.05162048339845	-1169.714721679688	-317.1394042968751	96.65679931640628	-1087.2041015625	-399.6135559082032	42.82891464233399	-1108.425537109375	-187.3085021972657	57.04673385620119	-1127.8232421875	-194.2994995117188	59.68075561523439	-1170.597412109375	-242.8753967285157	36.36360931396485	-1217.387451171875	-478.500213623047	479.306610107422	-741.4003295898439	-423.5864562988282	504.5788879394532	-740.0855102539064	-415.7595825195314	524.8565673828126	-767.0162353515626	-353.1426696777344	480.3599243164064	-705.0972900390626	-210.3192901611329	429.5670166015626	-687.1010131835939	-187.4418640136719	256.7018432617188	-731.5401611328126	-278.6866455078126	210.7488098144532	-690.5653076171876	-241.3032836914063	191.5070037841797	-717.0661010742189	-255.0150756835938	151.6514129638672	-756.8728637695314	-352.4981384277344	97.61622619628909	-725.2092285156251	-315.6760864257813	93.56634521484376	-798.4957275390627	-400.290740966797	44.18196105957032	-788.281677246094	-197.0733032226563	53.0637664794922	-737.2398071289064	-208.9380645751954	62.25962066650392	-693.4769897460939	-262.8132019042969	42.23251342773438	-655.7849121093751	-575.0524902343751	598.0545043945314	-808.642272949219	
